<mxfile host="app.diagrams.net" modified="2021-08-05T20:58:53.259Z" agent="5.0 (Macintosh; Intel Mac OS X 10_15_7) AppleWebKit/537.36 (KHTML, like Gecko) Chrome/92.0.4515.107 Safari/537.36" etag="L8fSGQO0suoo2EVo-YFb" version="14.9.4" type="github">
  <diagram id="C5RBs43oDa-KdzZeNtuy" name="Page-1">
    <mxGraphModel dx="2864" dy="4524" grid="1" gridSize="10" guides="1" tooltips="1" connect="1" arrows="1" fold="1" page="1" pageScale="1" pageWidth="827" pageHeight="1169" math="0" shadow="0">
      <root>
        <mxCell id="WIyWlLk6GJQsqaUBKTNV-0" />
        <mxCell id="WIyWlLk6GJQsqaUBKTNV-1" parent="WIyWlLk6GJQsqaUBKTNV-0" />
        <mxCell id="mNcTlY_ZjxZ_Q9fH0nft-12" style="edgeStyle=orthogonalEdgeStyle;rounded=0;orthogonalLoop=1;jettySize=auto;html=1;exitX=1;exitY=0.5;exitDx=0;exitDy=0;entryX=0;entryY=0.595;entryDx=0;entryDy=0;entryPerimeter=0;fontSize=80;" edge="1" parent="WIyWlLk6GJQsqaUBKTNV-1" source="mNcTlY_ZjxZ_Q9fH0nft-1" target="mNcTlY_ZjxZ_Q9fH0nft-2">
          <mxGeometry relative="1" as="geometry" />
        </mxCell>
        <mxCell id="mNcTlY_ZjxZ_Q9fH0nft-1" value="&lt;span style=&quot;font-size: 46px&quot;&gt;&lt;br&gt;&lt;br&gt;&lt;br&gt;nav bar&lt;br&gt;(vertical)&lt;br&gt;&lt;br&gt;calendar&lt;br&gt;&lt;br&gt;todo&lt;br&gt;&lt;br&gt;diary&lt;br&gt;&lt;br&gt;logout&lt;br&gt;------------&lt;br&gt;mini todo&lt;br&gt;todolist&lt;br&gt;작게 (calendar&lt;br&gt;에 드래그 앤 드랍 가능)&lt;br&gt;&lt;br&gt;&lt;br&gt;&lt;br&gt;&lt;/span&gt;" style="whiteSpace=wrap;html=1;" vertex="1" parent="WIyWlLk6GJQsqaUBKTNV-1">
          <mxGeometry x="-600" y="-2170" width="220" height="990" as="geometry" />
        </mxCell>
        <mxCell id="mNcTlY_ZjxZ_Q9fH0nft-5" style="edgeStyle=orthogonalEdgeStyle;rounded=0;orthogonalLoop=1;jettySize=auto;html=1;exitX=0.5;exitY=1;exitDx=0;exitDy=0;fontSize=80;" edge="1" parent="WIyWlLk6GJQsqaUBKTNV-1" source="mNcTlY_ZjxZ_Q9fH0nft-2" target="mNcTlY_ZjxZ_Q9fH0nft-3">
          <mxGeometry relative="1" as="geometry">
            <mxPoint x="410" y="-1170" as="targetPoint" />
          </mxGeometry>
        </mxCell>
        <mxCell id="mNcTlY_ZjxZ_Q9fH0nft-2" value="calendar&lt;br&gt;80%구현 완료&lt;br&gt;투두리스트&lt;br&gt;드랍기능만추가하면됨" style="whiteSpace=wrap;html=1;aspect=fixed;fontSize=80;" vertex="1" parent="WIyWlLk6GJQsqaUBKTNV-1">
          <mxGeometry x="60" y="-2163" width="820" height="820" as="geometry" />
        </mxCell>
        <mxCell id="mNcTlY_ZjxZ_Q9fH0nft-3" value="todolist&lt;br&gt;80%구현 완료&lt;br&gt;투두리스트&lt;br&gt;드래그기능만추가하면됨" style="whiteSpace=wrap;html=1;aspect=fixed;fontSize=80;" vertex="1" parent="WIyWlLk6GJQsqaUBKTNV-1">
          <mxGeometry x="60" y="-1160" width="820" height="820" as="geometry" />
        </mxCell>
        <mxCell id="mNcTlY_ZjxZ_Q9fH0nft-13" value="&lt;p style=&quot;line-height: 0%&quot;&gt;&lt;/p&gt;&lt;pre&gt;&lt;span style=&quot;font-size: 20px ; line-height: 30%&quot;&gt;create diary&amp;nbsp; &amp;nbsp;l&amp;nbsp; &amp;nbsp;diary list&amp;nbsp;&amp;nbsp;(horizon nav bar)&lt;/span&gt;&lt;/pre&gt;&lt;pre&gt;&lt;span style=&quot;font-size: 20px ; line-height: 30%&quot;&gt;총 세가지 형식의 페이지가 필요&lt;/span&gt;&lt;/pre&gt;&lt;pre&gt;&lt;span style=&quot;font-size: 20px ; line-height: 30%&quot;&gt;1.create diray: 말 그대로 일기를 작성하는 곳으로&amp;nbsp;quill editor 이용하여 코드 스닙 영상 및 사진 첨부&amp;nbsp; 글씨 스타일 적용등의 기능 적용&lt;/span&gt;&lt;/pre&gt;&lt;pre&gt;&lt;span style=&quot;font-size: 20px ; line-height: 30%&quot;&gt;2. diary list : 작성한 일기들을 정사각형 형태의 미리보기 인덱스로 정렬해 놓는 곳으로 인덱스 클릭 시 개별 일기로 이동 혹은 팝업 형태로 띄움&amp;nbsp; &amp;nbsp;&lt;/span&gt;&lt;/pre&gt;&lt;span style=&quot;font-size: 20px ; line-height: 30%&quot;&gt;3. diary: 리스트에서 클릭하면 들어오게되는 개별 일기들의 페이지&lt;br&gt;&lt;br&gt;&lt;/span&gt;&lt;p&gt;&lt;/p&gt;" style="whiteSpace=wrap;html=1;aspect=fixed;fontSize=80;" vertex="1" parent="WIyWlLk6GJQsqaUBKTNV-1">
          <mxGeometry x="59" y="-142" width="820" height="820" as="geometry" />
        </mxCell>
        <mxCell id="mNcTlY_ZjxZ_Q9fH0nft-15" value="" style="endArrow=classic;html=1;fontSize=80;exitX=0.5;exitY=1;exitDx=0;exitDy=0;" edge="1" parent="WIyWlLk6GJQsqaUBKTNV-1" source="mNcTlY_ZjxZ_Q9fH0nft-3" target="mNcTlY_ZjxZ_Q9fH0nft-13">
          <mxGeometry width="50" height="50" relative="1" as="geometry">
            <mxPoint x="330" y="-170" as="sourcePoint" />
            <mxPoint x="380" y="-220" as="targetPoint" />
          </mxGeometry>
        </mxCell>
        <mxCell id="mNcTlY_ZjxZ_Q9fH0nft-16" value="main/login page&lt;br&gt;&lt;br&gt;간략한 설명과 함께 우상단에 sign up/sign in 버튼&amp;nbsp;&lt;br&gt;main page/ sign-up page/ login page(pop-up형태로도 가능)&amp;nbsp;&lt;br&gt;총 세개의 페이지 필요" style="whiteSpace=wrap;html=1;aspect=fixed;fontSize=20;" vertex="1" parent="WIyWlLk6GJQsqaUBKTNV-1">
          <mxGeometry x="60" y="-3260" width="820" height="820" as="geometry" />
        </mxCell>
        <mxCell id="mNcTlY_ZjxZ_Q9fH0nft-17" value="" style="endArrow=classic;html=1;fontSize=80;entryX=0.5;entryY=0;entryDx=0;entryDy=0;" edge="1" parent="WIyWlLk6GJQsqaUBKTNV-1" source="mNcTlY_ZjxZ_Q9fH0nft-16" target="mNcTlY_ZjxZ_Q9fH0nft-2">
          <mxGeometry width="50" height="50" relative="1" as="geometry">
            <mxPoint x="360" y="-2250" as="sourcePoint" />
            <mxPoint x="410" y="-2300" as="targetPoint" />
            <Array as="points">
              <mxPoint x="470" y="-2360" />
            </Array>
          </mxGeometry>
        </mxCell>
        <mxCell id="mNcTlY_ZjxZ_Q9fH0nft-19" value="" style="endArrow=classic;html=1;fontSize=20;exitX=1.002;exitY=0.544;exitDx=0;exitDy=0;exitPerimeter=0;" edge="1" parent="WIyWlLk6GJQsqaUBKTNV-1" source="mNcTlY_ZjxZ_Q9fH0nft-2">
          <mxGeometry width="50" height="50" relative="1" as="geometry">
            <mxPoint x="1220" y="-1830" as="sourcePoint" />
            <mxPoint x="1260" y="-1720" as="targetPoint" />
            <Array as="points">
              <mxPoint x="1260" y="-1720" />
            </Array>
          </mxGeometry>
        </mxCell>
        <mxCell id="mNcTlY_ZjxZ_Q9fH0nft-20" value="dev tool&lt;br&gt;&lt;br&gt;react.js, node.js, mongoDB, quil-editor, react-icon, mongoose, Express etc." style="whiteSpace=wrap;html=1;aspect=fixed;fontSize=20;" vertex="1" parent="WIyWlLk6GJQsqaUBKTNV-1">
          <mxGeometry x="1260" y="-2130" width="950" height="950" as="geometry" />
        </mxCell>
      </root>
    </mxGraphModel>
  </diagram>
</mxfile>
